# AST/ASF file generated using VICON BodyLanguage
# -----------------------------------------------
:version 1.10
:name VICON
:units
  mass 1.0
  length 0.45
  angle deg
:documentation
   .ast/.asf automatically generated from VICON data using
   VICON BodyBuilder and BodyLanguage model FoxedUp or BRILLIANT.MOD
:root
   order TX TY TZ RX RY RZ
   axis XYZ
   position 0 0 0  
   orientation 0 0 0 
:bonedata
  begin
     id 1 
     name lhipjoint
     direction 0.570549 -0.739093 0.358072 
     length 2.41801 
     axis 0 0 0  XYZ
  end
  begin
     id 2 
     name lfemur
     direction 0.34202 -0.939693 0  
     length 7.44434  
     axis 0 0 20  XYZ
    dof rx ry rz
    limits (-160.0 20.0)
           (-70.0 70.0)
           (-60.0 70.0)
  end
  begin
     id 3 
     name ltibia
     direction 0.34202 -0.939693 0   
     length 7.60047   
     axis 0 0 20   XYZ
    dof rx
    limits (-10.0 170.0)
  end
  begin
     id 4 
     name lfoot
     direction 0.0909041 -0.249757 0.964032   
     length 2.03437   
     axis -90 7.62852e-016 20   XYZ
    dof rx rz
    limits (-45.0 90.0)
           (-70.0 20.0)
  end
  begin
     id 5 
     name ltoes
     direction 1.53547e-011 -4.2174e-011 1   
     length 1.02054   
     axis -90 7.62852e-016 20   XYZ
    dof rx
    limits (-90.0 20.0)
  end
  begin
     id 6 
     name rhipjoint
     direction -0.558096 -0.746754 0.361784   
     length 2.3932  
     axis 0 0 0  XYZ 
  end
  begin
     id 7 
     name rfemur
     direction -0.34202 -0.939693 0   
     length 7.3886   
     axis 0 0 -20   XYZ
    dof rx ry rz
    limits (-160.0 20.0)
           (-70.0 70.0)
           (-70.0 60.0)
  end
  begin
     id 8 
     name rtibia
     direction -0.34202 -0.939693 0   
     length 7.4839   
     axis 0 0 -20   XYZ
    dof rx
    limits (-10.0 170.0)
 end
 begin
     id 9 
     name rfoot
     direction -0.114619 -0.314914 0.942174   
     length 2.25127  
     axis -90 -7.62852e-016 -20   XYZ
    dof rx rz
    limits (-45.0 90.0)
           (-20.0 70.0)
  end
  begin
     id 10 
     name rtoes
     direction -1.53518e-011 -4.21881e-011 1   
     length 1.11821   
     axis -90 -7.62852e-016 -20   XYZ
    dof rx
    limits (-90.0 20.0)
  end
  begin
     id 11 
     name lowerback
     direction -0.00902269 0.996426 -0.0839821   
     length 2.25052   
     axis 0 0 0   XYZ
    dof rx ry rz
    limits (-20.0 45.0)
           (-30.0 30.0)
           (-30.0 30.0)
  end
  begin
     id 12 
     name upperback
     direction 0.0370973 0.999169 -0.0168941   
     length 2.24876   
     axis 0 0 0   XYZ
    dof rx ry rz
    limits (-20.0 45.0)
           (-30.0 30.0)
           (-30.0 30.0)
  end
  begin
     id 13 
     name thorax
     direction 0.0402726 0.998931 0.0227027   
     length 2.26408   
     axis 0 0 0   XYZ
    dof rx ry rz
    limits (-20.0 45.0)
           (-30.0 30.0)
           (-30.0 30.0)
  end
  begin
     id 14 
     name lowerneck
     direction -0.0733697 0.98508 0.155675   
     length 1.58204   
     axis 0 0 0   XYZ
    dof rx ry rz
    limits (-20.0 45.0)
           (-30.0 30.0)
           (-30.0 30.0)
  end
  begin
     id 15 
     name upperneck
     direction 0.0426554 0.993501 -0.105526   
     length 1.61222   
     axis 0 0 0   XYZ
    dof rx ry rz
    limits (-20.0 45.0)
           (-30.0 30.0)
           (-30.0 30.0)
  end
  begin
     id 16
     name head
     direction 0.020792 0.998384 -0.0528868  
     length 1.61527  
     axis 0 0 0   XYZ
    dof rx ry rz
    limits (-20.0 45.0)
           (-30.0 30.0)
           (-30.0 30.0)
  end
  begin
     id 17 
     name lclavicle
     direction 0.967109 0.155462 -0.201325  
     length 3.59357  
     axis 0 0 0   XYZ
    dof ry rz
    limits (-20.0 10.0)
           (0.0 20.0)
  end
  begin
     id 18 
     name lhumerus
     direction 1 -4.48968e-011 2.38195e-027   
     length 5.38154   
     axis 180 -30 -90   XYZ
    dof rx ry rz
    limits (-60.0 90.0)
           (-90.0 90.0)
           (-90.0 90.0)
  end
  begin
     id 19
     name lradius
     direction 1 -4.48961e-011 4.85371e-027   
     length 3.33312   
     axis 180 -30 -90   XYZ
    dof rx
    limits (-10.0 170.0)
  end
  begin
     id 20
     name lwrist
     direction 1 -4.48961e-011 4.76515e-027   
     length 1.66656   
     axis -3.27502e-015 90 90   XYZ
    dof ry
    limits (-180.0 0.0)
 end
  begin
     id 21 
     name lhand
     direction 1 -4.48951e-011 9.53074e-027   
     length 0.710789   
     axis -6.08098e-015 90 90   XYZ
    dof rx rz
    limits (-90.0 90.0)
           (-45.0 45.0)
  end
  begin
     id 22 
     name lfingers
     direction 1 -4.48953e-011 1.90613e-026   
     length 0.573057   
     axis -1.21619e-014 90 90   XYZ
    dof rx
    limits (0.0 90.0)
  end
  begin
     id 23
     name lthumb
     direction 0.707107 -6.34973e-011 0.707107   
     length 0.822798   
     axis -90 45 -9.86923e-015   XYZ
    dof rx rz
    limits (-45.0 45.0)
           (-45.0 45.0)
  end
  begin
     id 24 
     name rclavicle
     direction -0.9585 0.265289 -0.104398   
     length 3.42039  
     axis 0 0 0   XYZ 
    dof ry rz
    limits (-10.0 20.0)
           (-20.0 0.0)
  end
  begin
     id 25 
     name rhumerus
     direction -1 -4.48977e-011 2.21478e-027  
     length 5.16954   
     axis 180 30 90   XYZ
    dof rx ry rz
    limits (-90.0 60.0)
           (-90.0 90.0)
           (-90.0 90.0)
  end
  begin
     id 26 
     name rradius
     direction -1 -4.48967e-011 5.63677e-027   
     length 3.38287   
     axis 180 30 90   XYZ
    dof rx
    limits (-10.0 170.0)
  end
  begin
     id 27 
     name rwrist
     direction -1 -4.48967e-011 4.76501e-027   
     length 1.69144   
     axis -3.27502e-015 -90 -90   XYZ
    dof ry
    limits (-180.0 0.0)
  end
  begin
     id 28
     name rhand
     direction -1 -4.48902e-011 9.53292e-027   
     length 0.817967   
     axis -6.08098e-015 -90 -90   XYZ
    dof rx rz
    limits (-90.0 90.0)
           (-45.0 45.0)
  end
  begin
     id 29
     name rfingers
     direction -1 -4.49012e-011 1.90561e-026   
     length 0.659466   
     axis -1.21619e-014 -90 -90   XYZ
    dof rx
    limits (0.0 90.0)
  end
  begin
     id 30
     name rthumb
     direction -0.707107 -6.34944e-011 0.707107   
     length 0.946865   
     axis -90 -45 9.86923e-015   XYZ
    dof rx rz
    limits (-45.0 45.0)
           (-45.0 45.0)
  end
:hierarchy
  begin
    root lhipjoint rhipjoint lowerback
    lhipjoint lfemur
    lfemur ltibia
    ltibia lfoot
    lfoot ltoes
    rhipjoint rfemur
    rfemur rtibia
    rtibia rfoot
    rfoot rtoes
    lowerback upperback
    upperback thorax
    thorax lowerneck lclavicle rclavicle
    lowerneck upperneck
    upperneck head
    lclavicle lhumerus
    lhumerus lradius
    lradius lwrist
    lwrist lhand lthumb
    lhand lfingers
    rclavicle rhumerus
    rhumerus rradius
    rradius rwrist
    rwrist rhand rthumb
    rhand rfingers
  end

#!OML:ASF F:\twosubjects\two\wednesday\Session 1\Justin1.ASF
:FULLY-SPECIFIED
:DEGREES
124
root -4.40882 17.7132 7.46506 -168.516 -24.017 -183.047
lowerback 4.8867 -1.90735 -4.4186
upperback -2.19246 -2.83391 0.698051
thorax -4.77042 -1.25931 3.45161
lowerneck -12.124 -9.49757 -14.0098
upperneck 10.3025 -11.1767 5.93438
head 6.22425 -5.58629 3.01462
rclavicle 4.67144e-015 9.34288e-015
rhumerus 56.4631 -50.1921 -64.2718
rradius 68.9362
rwrist -17.6291
rhand -30.9355 14.9694
rfingers 7.12502
rthumb -4.22089 -14.9686
lclavicle 4.67144e-015 9.34288e-015
lhumerus -31.0919 8.71994 73.3714
lradius 41.4249
lwrist -4.79776
lhand -5.61393 35.178
lfingers 7.12502
lthumb 20.2035 64.1473
rfemur -34.0887 -3.09741 22.7048
rtibia 23.5776
rfoot -0.0508296 -10.7665
rtoes 24.4041
lfemur 8.02115 -7.53045 -22.71
ltibia 16.1203
lfoot 2.19266 -22.3964
ltoes 17.8628
125
root -4.42652 17.7316 7.29052 -168.567 -23.7297 -183.04
lowerback 4.60009 -1.72498 -4.69421
upperback -2.12109 -2.59087 0.744579
thorax -4.54189 -1.13736 3.6213
lowerneck -11.4265 -9.4961 -13.9489
upperneck 9.81142 -11.2866 6.05419
head 5.9669 -5.63594 3.06715
rclavicle -1.8313e-014 -1.19271e-014
rhumerus 58.2561 -48.9259 -65.0547
rradius 67.2226
rwrist -16.3863
rhand -29.1398 13.5731
rfingers 7.12502
rthumb -2.48672 -16.3922
lclavicle -1.8313e-014 -1.19271e-014
lhumerus -31.6169 9.66126 72.9936
lradius 40.7151
lwrist -5.01706
lhand -5.84649 35.6743
lfingers 7.12502
lthumb 19.9799 64.6671
rfemur -33.6954 -3.16007 22.9642
rtibia 24.2075
rfoot -0.591299 -10.0567
rtoes 24.9149
lfemur 7.65599 -7.21702 -22.4657
ltibia 17.49
lfoot 4.14178 -22.741
ltoes 17.1871
126
root -4.43474 17.7494 7.11447 -168.686 -23.8962 -182.879
lowerback 4.88338 -1.5692 -4.53459
upperback -2.35298 -2.40002 0.643268
thorax -4.97433 -1.03414 3.42858
lowerneck -10.779 -9.58161 -13.8611
upperneck 9.70621 -11.5496 6.36413
head 5.86667 -5.75172 3.15018
rclavicle 1.49089e-014 -4.77083e-015
rhumerus 58.5688 -47.8907 -64.4585
rradius 65.3771
rwrist -15.9548
rhand -28.9414 15.0776
rfingers 7.12502
rthumb -2.29516 -14.8898
lclavicle 1.49089e-014 -4.77083e-015
lhumerus -32.3786 9.99233 72.4253
lradius 39.9885
lwrist -5.12108
lhand -5.68653 36.0753
lfingers 7.12502
lthumb 20.1337 65.0521
rfemur -33.2808 -3.48776 23.4436
rtibia 24.8197
rfoot -1.03485 -9.32134
rtoes 24.5469
lfemur 7.2145 -7.20939 -21.8871
ltibia 18.8407
lfoot 6.73861 -22.8094
ltoes 18.2249
127
root -4.44482 17.756 6.93473 -169.051 -24.1403 -182.519
lowerback 5.2854 -1.43593 -4.13123
upperback -2.43695 -2.2149 0.607317
thorax -5.32306 -0.945522 3.16561
lowerneck -10.7115 -9.78662 -13.7317
upperneck 9.93382 -11.8838 6.47008
head 5.95995 -5.90634 3.12408
rclavicle -4.21423e-014 1.26228e-014
rhumerus 59.2193 -46.9498 -64.0554
rradius 63.2212
rwrist -15.4148
rhand -28.606 16.6697
rfingers 7.12502
rthumb -1.97123 -13.301
lclavicle -4.21423e-014 1.26228e-014
lhumerus -32.9122 10.4645 71.9075
lradius 39.0763
lwrist -5.34197
lhand -5.65714 36.234
lfingers 7.12502
lthumb 20.1619 65.2077
rfemur -32.624 -3.89285 24.1123
rtibia 25.3175
rfoot -1.55162 -8.71637
rtoes 24.4667
lfemur 6.87979 -7.1456 -21.1208
ltibia 20.2776
lfoot 9.56547 -22.4534
ltoes 20.4304
128
root -4.46605 17.7527 6.77435 -168.927 -23.6465 -182.41
lowerback 5.06127 -1.14393 -4.05278
upperback -2.45158 -1.81435 0.534142
thorax -5.24837 -0.753723 3.00192
lowerneck -10.7215 -9.9627 -13.4266
upperneck 10.0362 -12.1552 6.31589
head 5.992 -6.0375 2.99639
rclavicle 6.69407e-014 1.98785e-015
rhumerus 60.8744 -45.9734 -64.8348
rradius 61.2673
rwrist -14.4184
rhand -28.0869 18.3466
rfingers 7.12502
rthumb -1.46983 -11.6281
lclavicle 6.69407e-014 1.98785e-015
lhumerus -33.1864 11.1148 71.4744
lradius 37.9482
lwrist -5.88712
lhand -5.77778 36.1666
lfingers 7.12502
lthumb 20.046 65.1525
rfemur -32.5116 -4.11573 24.5059
rtibia 25.6673
rfoot -1.9083 -7.74098
rtoes 24.9785
lfemur 5.93206 -6.75314 -20.9079
ltibia 21.8935
lfoot 12.407 -21.6241
ltoes 22.8393
129
root -4.47849 17.7581 6.60283 -168.971 -23.5465 -182.351
lowerback 4.98593 -1.00373 -4.14808
upperback -2.44702 -1.63137 0.523136
thorax -5.21357 -0.661098 3.0254
lowerneck -10.8316 -9.96455 -13.7577
upperneck 10.502 -12.1933 6.87731
head 6.21988 -6.03458 3.2042
rclavicle 1.49089e-016 -1.0138e-014
rhumerus 64.0038 -45.414 -67.8595
rradius 60.2155
rwrist -7.55233
rhand -24.1067 16.9565
rfingers 7.12502
rthumb 2.37433 -13.01
lclavicle 1.49089e-016 -1.0138e-014
lhumerus -33.7109 11.3125 71.1524
lradius 37.1697
lwrist -5.59381
lhand -6.02773 36.6879
lfingers 7.12502
lthumb 19.8057 65.6988
rfemur -32.0541 -4.21761 24.782
rtibia 25.9616
rfoot -2.53088 -7.26916
rtoes 24.994
lfemur 5.08944 -6.60284 -20.5154
ltibia 23.6225
lfoot 15.6821 -21.0045
ltoes 25.4862
130
root -4.48962 17.7671 6.43004 -169.19 -23.6939 -181.862
lowerback 4.98198 -0.982313 -3.80568
upperback -2.45636 -1.56822 0.700239
thorax -5.22892 -0.637494 3.01187
lowerneck -10.9889 -9.89475 -14.4402
upperneck 10.9414 -12.101 7.63277
head 6.46922 -5.96771 3.54299
rclavicle -1.74931e-014 7.55382e-015
rhumerus 68.7781 -44.9929 -73.7796
rradius 60.8727
rwrist 7.2205
rhand -14.6301 15.5802
rfingers 7.12502
rthumb 11.5215 -14.0831
lclavicle -1.74931e-014 7.55382e-015
lhumerus -34.3129 11.7491 70.8049
lradius 36.6111
lwrist -4.92326
lhand -5.95527 37.4101
lfingers 7.12502
lthumb 19.8754 66.4138
rfemur -31.5086 -4.32742 25.4919
rtibia 26.2105
rfoot -3.22664 -6.92014
rtoes 24.0662
lfemur 4.17297 -6.51308 -19.5816
ltibia 25.4237
lfoot 18.626 -20.6031
ltoes 25.8113
131
root -4.50074 17.7749 6.263 -169.308 -23.8096 -181.458
lowerback 5.01906 -0.915736 -3.42149
upperback -2.57872 -1.452 0.798946
thorax -5.39311 -0.587108 2.89128
lowerneck -10.4822 -10.0554 -14.2066
upperneck 10.6781 -12.3573 7.18094
head 6.28368 -6.12299 3.35822
rclavicle 1.23495e-014 -7.55382e-015
rhumerus 74.3118 -44.6062 -81.7646
rradius 65.3022
rwrist 19.3735
rhand -4.53781 18.5699
rfingers 7.12502
rthumb 21.2374 -10.2866
lclavicle 1.23495e-014 -7.55382e-015
lhumerus -34.6557 12.4119 70.3195
lradius 35.4331
lwrist -5.01514
lhand -5.63226 37.3917
lfingers 7.12502
lthumb 20.1858 66.3629
rfemur -31.0173 -4.3062 26.0406
rtibia 26.3881
rfoot -3.9076 -6.69036
rtoes 23.5192
lfemur 3.0867 -6.27408 -18.7151
ltibia 27.2627
lfoot 21.3366 -20.4171
ltoes 24.3637
132
root -4.51312 17.7921 6.09184 -169.244 -23.9577 -181.57
lowerback 5.00297 -0.816764 -3.53257
upperback -2.65276 -1.32967 0.809004
thorax -5.46879 -0.520332 2.95388
lowerneck -10.21 -10.3171 -13.9927
upperneck 10.5711 -12.7086 6.63233
head 6.19024 -6.32637 3.12407
rclavicle -8.54774e-015 -6.16232e-015
rhumerus 79.6239 -44.0046 -89.0321
rradius 70.9511
rwrist 24.1008
rhand 3.11397 20.946
rfingers 7.12502
rthumb 28.5695 -6.89096
lclavicle -8.54774e-015 -6.16232e-015
lhumerus -34.8946 12.9489 70.0323
lradius 34.184
lwrist -5.42578
lhand -5.16915 37.0204
lfingers 7.12502
lthumb 20.6309 65.944
rfemur -30.4464 -4.51523 26.0951
rtibia 26.4889
rfoot -4.54314 -6.44433
rtoes 23.5533
lfemur 2.0332 -6.22813 -18.3323
ltibia 29.2189
lfoot 23.5897 -20.5152
ltoes 21.4199
133
root -4.5276 17.8085 5.91691 -169.328 -24.3286 -181.653
lowerback 5.05529 -0.823229 -3.60589
upperback -2.60518 -1.33939 0.88868
thorax -5.44484 -0.521486 3.07965
lowerneck -10.8537 -10.502 -14.1094
upperneck 11.3454 -12.8471 6.30788
head 6.54521 -6.4154 2.97567
rclavicle 1.94064e-014 -1.53064e-014
rhumerus 83.4965 -42.9581 -93.3874
rradius 75.2043
rwrist 24.116
rhand 7.88715 21.8625
rfingers 7.12502
rthumb 33.1197 -5.11233
lclavicle 1.94064e-014 -1.53064e-014
lhumerus -35.2894 13.4968 69.7175
lradius 33.3168
lwrist -5.89523
lhand -4.15254 36.4613
lfingers 7.12502
lthumb 21.6075 65.2758
rfemur -29.6753 -5.22327 26.2999
rtibia 26.4965
rfoot -5.02783 -5.9808
rtoes 23.3154
lfemur 1.08391 -6.5362 -17.9476
ltibia 31.3557
lfoot 24.8722 -21.3357
ltoes 16.5587
134
root -4.53915 17.8172 5.74902 -169.553 -24.7415 -181.366
lowerback 5.21778 -0.79995 -3.30993
upperback -2.65792 -1.28917 0.964982
thorax -5.60065 -0.502019 2.9927
lowerneck -11.3469 -10.7199 -14.0148
upperneck 12.2689 -13.0924 5.9346
head 6.91859 -6.55924 2.76976
rclavicle -3.70236e-015 5.36719e-015
rhumerus 85.2536 -41.9955 -94.641
rradius 77.6555
rwrist 19.9392
rhand 7.86596 20.314
rfingers 7.12502
rthumb 33.0996 -6.66517
lclavicle -3.70236e-015 5.36719e-015
lhumerus -35.663 13.7882 69.2494
lradius 32.3536
lwrist -6.56016
lhand -3.43413 36.1486
lfingers 7.12502
lthumb 22.2973 64.8821
rfemur -28.8427 -5.81263 26.8695
rtibia 26.3314
rfoot -5.3595 -5.61927
rtoes 23.3105
lfemur -0.0405033 -6.627 -17.177
ltibia 33.6553
lfoot 26.2144 -22.5004
ltoes 14.1391
135
root -4.53846 17.8268 5.60124 -169.721 -24.9366 -180.76
lowerback 5.43423 -0.607964 -2.90694
upperback -2.84496 -1.005 1.13647
thorax -5.94571 -0.36574 2.92465
lowerneck -10.7797 -10.8062 -14.3012
upperneck 12.2708 -13.3385 6.44809
head 6.90489 -6.66774 2.96938
rclavicle -2.11209e-014 -9.14409e-015
rhumerus 85.8293 -41.2022 -93.8965
rradius 78.8199
rwrist 11.9107
rhand 2.42947 17.5414
rfingers 7.12502
rthumb 27.9152 -10.4038
lclavicle -2.11209e-014 -9.14409e-015
lhumerus -35.8649 13.7868 69.1054
lradius 31.4121
lwrist -7.09458
lhand -3.44824 36.4111
lfingers 7.12502
lthumb 22.2837 65.1463
rfemur -28.2382 -5.76556 27.6844
rtibia 26.0223
rfoot -5.48705 -5.71764
rtoes 23.5519
lfemur -1.53925 -6.47397 -16.0633
ltibia 36.0373
lfoot 27.4077 -23.3582
ltoes 13.4312
136
root -4.53435 17.8374 5.45131 -170.171 -25.1446 -179.871
lowerback 5.8606 -0.455322 -2.38361
upperback -3.02695 -0.75583 1.47978
thorax -6.40188 -0.248636 2.97401
lowerneck -9.53414 -10.6135 -14.5558
upperneck 11.5285 -13.2768 7.0271
head 6.50835 -6.63306 3.27333
rclavicle -5.27276e-014 2.82274e-014
rhumerus 87.453 -40.2942 -94.5159
rradius 80.8705
rwrist 7.3734
rhand 0.853624 15.0744
rfingers 7.12502
rthumb 26.4077 -13.1063
lclavicle -5.27276e-014 2.82274e-014
lhumerus -36.2709 14.003 68.9779
lradius 30.6107
lwrist -7.76163
lhand -3.37052 36.4
lfingers 7.12502
lthumb 22.3583 65.1262
rfemur -27.4321 -5.65123 28.7597
rtibia 25.66
rfoot -5.69292 -5.9392
rtoes 23.4102
lfemur -2.83939 -6.55912 -14.7022
ltibia 38.4109
lfoot 27.4871 -24.0488
ltoes 11.1538
